<svg width="40" height="40" viewBox="0 0 40 40" fill="none" xmlns="http://www.w3.org/2000/svg">
<path d="M28.4286 3.40137C29.1431 3.40137 29.8033 3.78257 30.1606 4.40137L38.5892 19.0002C38.9465 19.619 38.9465 20.3814 38.5892 21.0002L30.1606 35.599C29.8033 36.2178 29.1431 36.599 28.4286 36.599L11.5713 36.599C10.8568 36.599 10.1965 36.2178 9.83923 35.599L1.4106 21.0002C1.05334 20.3814 1.05334 19.619 1.4106 19.0002L9.83924 4.40137C10.1965 3.78256 10.8568 3.40137 11.5713 3.40137L28.4286 3.40137Z" fill="url(#paint0_linear_289_2801)"/>
<path d="M21.1629 18.9858H13.9336C15.9656 17.7391 17.6813 16.0252 18.9299 13.9932V17.8693H21.1629V7.09766C21.1629 6.54537 20.7152 6.09766 20.1629 6.09766H19.9281C19.3758 6.09766 18.9321 6.54695 18.8898 7.09761C18.3795 13.7441 12.8249 18.9765 6.04919 18.9765V18.9765C6.04508 18.9765 6.04175 18.9799 6.04175 18.984V20.2189C6.04175 20.7711 6.48946 21.2189 7.04175 21.2189H26.1612C24.1291 22.4675 22.4116 24.1813 21.1629 26.2134V22.3354H18.9299V33.1089C18.9299 33.6612 19.3777 34.1089 19.9299 34.1089H20.1648C20.7171 34.1089 21.1608 33.6596 21.203 33.1089C21.7133 26.4623 27.268 21.2282 34.0437 21.2282V21.2282C34.048 21.2282 34.0511 21.2266 34.0511 21.2223V19.9858C34.0511 19.4336 33.6034 18.9858 33.0511 18.9858H21.1629Z" fill="white"/>
<path d="M21.1629 13.9932H18.9299V17.8693H21.1629V13.9932Z" fill="url(#paint1_linear_289_2801)"/>
<path d="M18.9318 26.2119H21.1648V22.3358H18.9318V26.2119Z" fill="url(#paint2_linear_289_2801)"/>
<defs>
<linearGradient id="paint0_linear_289_2801" x1="10.2305" y1="3.43862" x2="38.8875" y2="36.5616" gradientUnits="userSpaceOnUse">
<stop stop-color="#7790FF"/>
<stop offset="0.5" stop-color="#3358FF"/>
<stop offset="1" stop-color="#001B94"/>
</linearGradient>
<linearGradient id="paint1_linear_289_2801" x1="20.0464" y1="13.9932" x2="20.0464" y2="17.8693" gradientUnits="userSpaceOnUse">
<stop stop-color="white"/>
<stop offset="1" stop-color="#3358FF"/>
</linearGradient>
<linearGradient id="paint2_linear_289_2801" x1="20.0464" y1="26.2119" x2="20.0464" y2="22.3358" gradientUnits="userSpaceOnUse">
<stop stop-color="white"/>
<stop offset="1" stop-color="#3358FF"/>
</linearGradient>
</defs>
</svg>
