<svg width="24" height="24" viewBox="0 0 24 24" fill="none" xmlns="http://www.w3.org/2000/svg">
<path fill-rule="evenodd" clip-rule="evenodd" d="M5.6357 16.9494C5.24517 17.3399 5.24517 17.9731 5.6357 18.3636C6.02622 18.7541 6.65939 18.7541 7.04991 18.3636L11.9996 13.4139L16.9494 18.3636C17.3399 18.7541 17.9731 18.7541 18.3636 18.3636C18.7541 17.9731 18.7541 17.3399 18.3636 16.9494L13.4138 11.9997L18.3636 7.04988C18.7541 6.65936 18.7541 6.02619 18.3636 5.63567C17.9731 5.24514 17.3399 5.24514 16.9494 5.63567L11.9996 10.5854L7.04988 5.63568C6.65936 5.24516 6.02619 5.24516 5.63567 5.63568C5.24514 6.02621 5.24514 6.65937 5.63567 7.0499L10.5854 11.9997L5.6357 16.9494Z" fill="#787C9C"/>
</svg>
