<svg width="17" height="16" viewBox="0 0 17 16" fill="none" xmlns="http://www.w3.org/2000/svg">
<path fill-rule="evenodd" clip-rule="evenodd" d="M8.50016 14.6663C12.1821 14.6663 15.1668 11.6816 15.1668 7.99967C15.1668 4.31778 12.1821 1.33301 8.50016 1.33301C4.81826 1.33301 1.8335 4.31778 1.8335 7.99967C1.8335 11.6816 4.81826 14.6663 8.50016 14.6663ZM7.50016 4.66634C7.50016 4.11406 7.94788 3.66634 8.50016 3.66634C9.05245 3.66634 9.50016 4.11406 9.50016 4.66634C9.50016 5.21863 9.05245 5.66634 8.50016 5.66634C7.94788 5.66634 7.50016 5.21863 7.50016 4.66634ZM9.50016 11.333C9.50016 11.8853 9.05245 12.333 8.50016 12.333C7.94788 12.333 7.50016 11.8853 7.50016 11.333L7.50016 7.33301C7.50016 6.78072 7.94788 6.33301 8.50016 6.33301C9.05245 6.33301 9.50016 6.78072 9.50016 7.33301L9.50016 11.333Z" fill="#313D65"/>
</svg>
