<svg width="16" height="16" viewBox="0 0 16 16" fill="none" xmlns="http://www.w3.org/2000/svg">
<path fill-rule="evenodd" clip-rule="evenodd" d="M10.6668 2C10.2986 2 10.0002 2.29848 10.0002 2.66667C10.0002 3.03486 10.2986 3.33333 10.6668 3.33333H12.4312L8.42873 7.48402L6.76577 5.75947C6.64012 5.62916 6.46689 5.55556 6.28588 5.55556C6.10486 5.55556 5.93163 5.62916 5.80598 5.75947L1.52027 10.2039C1.26469 10.4689 1.27237 10.891 1.53741 11.1466C1.80245 11.4021 2.22449 11.3945 2.48006 11.1294L6.28588 7.18265L7.94884 8.9072C8.07449 9.0375 8.24772 9.11111 8.42873 9.11111C8.60975 9.11111 8.78298 9.0375 8.90863 8.9072L13.3335 4.31845V6C13.3335 6.36819 13.632 6.66667 14.0002 6.66667C14.3684 6.66667 14.6668 6.36819 14.6668 6V2.66667C14.6668 2.29848 14.3684 2 14.0002 2H10.6668ZM2.00016 12.6667C1.63197 12.6667 1.3335 12.9651 1.3335 13.3333C1.3335 13.7015 1.63197 14 2.00016 14H14.0002C14.3684 14 14.6668 13.7015 14.6668 13.3333C14.6668 12.9651 14.3684 12.6667 14.0002 12.6667H2.00016Z" fill="white"/>
</svg>
